<svg xmlns="http://www.w3.org/2000/svg" viewBox="0 0 400 300" width="406" height="306" class="illustration styles_illustrationTablet__1DWOa"><g id="_278_alien_flatline" data-name="#278_alien_flatline"><path d="M261.2,67.28c0,16.53-27.4,29.94-61.2,29.94s-61.2-13.41-61.2-29.94S166.2,31.07,200,31.07,261.2,50.74,261.2,67.28Z" fill="#18181b"></path><path d="M200,97.72c-34,0-61.7-13.66-61.7-30.44,0-8.32,6.79-17.56,18.16-24.73,12.25-7.72,27.71-12,43.54-12s31.29,4.26,43.54,12C254.91,49.72,261.7,59,261.7,67.28,261.7,84.06,234,97.72,200,97.72Zm0-66.15c-33.62,0-60.7,19.53-60.7,35.71S166.53,96.72,200,96.72s60.7-13.21,60.7-29.44S233.62,31.57,200,31.57Z" fill="#231f20"></path><ellipse cx="200" cy="78.16" rx="133.32" ry="29.32" fill="#fff"></ellipse><path d="M200,108c-35.65,0-69.17-3.06-94.38-8.6C80.18,93.79,66.17,86.25,66.17,78.16s14-15.62,39.45-21.21c25.21-5.55,58.73-8.6,94.38-8.6s69.17,3,94.38,8.6c25.44,5.59,39.45,13.12,39.45,21.21s-14,15.63-39.45,21.22C269.17,104.92,235.65,108,200,108Zm0-58.63c-73.24,0-132.83,12.93-132.83,28.81S126.76,107,200,107,332.83,94.05,332.83,78.16,273.24,49.35,200,49.35Z" fill="#231f20"></path><ellipse cx="200" cy="80.8" rx="133.32" ry="26.68" fill="#fff"></ellipse><path d="M200,108C125,108,66.17,96,66.17,80.8S125,53.62,200,53.62,333.83,65.56,333.83,80.8,275,108,200,108Zm0-53.36c-35.58,0-69,2.78-94.18,7.81C81.26,67.34,67.17,74,67.17,80.8s14.09,13.46,38.65,18.37c25.15,5,58.6,7.81,94.18,7.81s69-2.77,94.18-7.81c24.56-4.91,38.65-11.61,38.65-18.37s-14.09-13.46-38.65-18.37C269,57.4,235.58,54.62,200,54.62Z" fill="#231f20"></path><polygon points="170.67 103.14 113.18 263.08 286.82 263.08 229.33 103.14 170.67 103.14" fill="#18181b"></polygon><ellipse cx="200" cy="103.14" rx="29.33" ry="4.34" fill="#231f20"></ellipse><path d="M200,108c-12,0-29.84-1.29-29.84-4.85S188,98.28,200,98.28s29.84,1.29,29.84,4.86S212,108,200,108Zm0-8.68c-17.59,0-28.81,2.27-28.81,3.83S182.41,107,200,107s28.81-2.26,28.81-3.82S217.59,99.31,200,99.31Z" fill="#231f20"></path><ellipse cx="200" cy="79.06" rx="3.29" ry="1.74" fill="#d1d3d4"></ellipse><ellipse cx="156.17" cy="80.8" rx="3.29" ry="1.74" fill="#d1d3d4"></ellipse><ellipse cx="243.83" cy="80.8" rx="3.29" ry="1.74" fill="#d1d3d4"></ellipse><ellipse cx="105.97" cy="86.92" rx="3.29" ry="1.74" fill="#d1d3d4"></ellipse><ellipse cx="294.03" cy="85.76" rx="3.29" ry="1.74" fill="#d1d3d4"></ellipse><ellipse cx="277.13" cy="99.44" rx="3.29" ry="1.74" fill="#d1d3d4"></ellipse><ellipse cx="126.18" cy="99.44" rx="3.29" ry="1.74" fill="#d1d3d4"></ellipse><path d="M185.61,166.49a.48.48,0,0,1-.42-.24,36.5,36.5,0,0,1-4.89-25.46.5.5,0,1,1,1,.17A35.49,35.49,0,0,0,186,165.72a.51.51,0,0,1-.16.69A.53.53,0,0,1,185.61,166.49Z" fill="#231f20"></path><circle cx="180.59" cy="139.29" r="2.34" fill="#231f20"></circle><path d="M180.59,142.14a2.85,2.85,0,1,1,2.85-2.85A2.86,2.86,0,0,1,180.59,142.14Zm0-4.67a1.82,1.82,0,1,0,1.82,1.82A1.82,1.82,0,0,0,180.59,137.47Z" fill="#231f20"></path><path d="M243.3,216.91c.28.1,10.79-5.91,9-9.85s-8.45,4.77-9.48,6.19" fill="#fff"></path><path d="M243.22,217.4h-.08a.51.51,0,0,1-.32-.63.49.49,0,0,1,.41-.34c.71-.27,7-3.93,8.5-7.23a2.27,2.27,0,0,0,.12-1.92c-.27-.6-.6-.7-.82-.72-1.84-.16-5.67,4.08-7.8,7a.5.5,0,1,1-.81-.59c.94-1.29,5.82-7.71,8.71-7.39a2,2,0,0,1,1.63,1.29c.63,1.39.08,3.06-1.64,5C248.87,214.31,244.14,217.4,243.22,217.4Z" fill="#231f20"></path><path d="M179.38,206.59c-.14.59-7.07,15.52-1.13,12.57s5.55-16.58,5.55-16.58" fill="#231f20"></path><path d="M176.94,220.06a1.4,1.4,0,0,1-1-.38c-1.29-1.2-.5-4.91,2.63-12.4.18-.43.3-.72.33-.82a.51.51,0,0,1,.63-.35.5.5,0,0,1,.37.6c0,.12-.11.31-.38,1-3.64,8.73-3.37,10.8-2.88,11.26.21.19.72.11,1.4-.23,5.58-2.77,5.27-16,5.27-16.11a.51.51,0,0,1,.5-.53.55.55,0,0,1,.53.5c0,.57.33,14-5.84,17.06A3.47,3.47,0,0,1,176.94,220.06Z" fill="#231f20"></path><path d="M205.92,221.05c-.31.24-1.68,20.27,2.74,14.93s5.06-15.54,5.06-15.54" fill="#231f20"></path><path d="M207.34,237.41a1.54,1.54,0,0,1-.3,0c-.75-.18-1.26-1-1.6-2.56-.63-2.93-.66-13.52.16-14.17a.53.53,0,0,1,.73.09.52.52,0,0,1,0,.55c-.34,1.33-.95,14.1.85,15.07.19.1.58-.15,1-.69,4.27-5.15,4.94-15.15,5-15.25a.54.54,0,0,1,.54-.48.52.52,0,0,1,.49.55c0,.42-.7,10.43-5.18,15.83A2.42,2.42,0,0,1,207.34,237.41Z" fill="#231f20"></path><path d="M229.06,224.43a8.47,8.47,0,0,1-5.82,3.29c-4.06.57-28.92-6.66-39.59-12.87-10.42-6.06-18.34-15.23-16.36-23.89.05-.21.1-.41.16-.62,1.61-5.63,8.55-15.28,14.53-21.57,3.42-3.58,6.51-6.08,8.13-6.12,1.22,0,3.91,1,7.39,2.85A93.24,93.24,0,0,1,210.35,174c1.69,1.3,3.38,2.7,5.05,4.19a85.62,85.62,0,0,1,7.62,7.62,60.78,60.78,0,0,1,6.47,8.82C240.19,212.67,229.06,224.43,229.06,224.43Z" fill="#fff"></path><path d="M190.18,162.65c1.25,0,3.91,1,7.32,2.85A93.24,93.24,0,0,1,210.35,174c1.69,1.3,3.38,2.7,5.05,4.19a85.62,85.62,0,0,1,7.62,7.62,60.78,60.78,0,0,1,6.47,8.82c10.7,18.06-.43,29.82-.43,29.82a8.47,8.47,0,0,1-5.82,3.29,2.83,2.83,0,0,1-.54,0c-5.35,0-28.78-6.93-39-12.91-10.42-6.06-18.34-15.23-16.36-23.89.05-.21.1-.41.16-.62,1.61-5.63,8.55-15.28,14.53-21.57,3.42-3.58,6.51-6.08,8.13-6.12h.07m0-1h-.1c-1.82,0-4.79,2.21-8.82,6.43-5.88,6.19-13.06,16-14.77,22-.06.22-.12.44-.17.66-1.49,6.49,2.16,16.46,16.83,25,10.31,6,33.74,13,39.55,13a4.5,4.5,0,0,0,.68,0,9.5,9.5,0,0,0,6.47-3.66c.9-1,11-13.17.5-31a61.81,61.81,0,0,0-6.57-9,86.41,86.41,0,0,0-7.72-7.71c-1.66-1.49-3.38-2.91-5.1-4.24a94.35,94.35,0,0,0-13-8.57c-2.06-1.11-5.82-3-7.79-3Z" fill="#231f20"></path><path d="M216.19,214.82s4.44-8.4,8.83-11.5,17.33,4,19.5,8.06S241,227.06,241,227.06,220.87,215,216.19,214.82Z" fill="#fff"></path><path d="M241,227.56a.5.5,0,0,1-.26-.08c-.2-.12-20-12-24.53-12.16a.51.51,0,0,1-.42-.24.53.53,0,0,1,0-.49c.19-.35,4.55-8.55,9-11.68,1.35-.95,3.42-1.11,6.15-.46,5.44,1.28,12.41,5.59,14.08,8.7,2.26,4.22-3.3,15.64-3.54,16.13a.51.51,0,0,1-.31.26Zm-24-13.14c5.34,1,20.79,10.15,23.77,11.93,1.66-3.52,4.91-11.75,3.32-14.73-1.39-2.59-7.86-6.88-13.43-8.2-2.4-.57-4.25-.46-5.34.31C221.76,206.23,218.11,212.42,217,214.42Z" fill="#231f20"></path><path d="M226.92,205.37s-7.59-10-9.91-8.7,0,8.89,7.37,9.82" fill="#fff"></path><path d="M224.38,207h-.06a9.75,9.75,0,0,1-8.55-7.29c-.33-1.62,0-2.91,1-3.46,2.52-1.45,8.72,6.39,10.56,8.83a.5.5,0,0,1-.1.7.51.51,0,0,1-.7-.1c-3.52-4.66-8.06-9.26-9.26-8.56-.55.31-.74,1.23-.51,2.39a8.75,8.75,0,0,0,7.69,6.5.5.5,0,0,1,.44.55A.51.51,0,0,1,224.38,207Z" fill="#231f20"></path><path d="M227.8,203.05s.59-5.32,1.34-5,2.52,5.89,2.52,5.89" fill="#fff"></path><path d="M231.66,204.48a.49.49,0,0,1-.47-.34,36.44,36.44,0,0,0-2.09-5.33,23.11,23.11,0,0,0-.8,4.29.5.5,0,0,1-1-.11c.36-3.21.84-5,1.43-5.33a.7.7,0,0,1,.63,0c.77.39,1.94,3.58,2.78,6.19a.51.51,0,0,1-.32.63Z" fill="#231f20"></path><path d="M239.62,208.88s4-3,5.06-2.47-3,5.09-3,5.09" fill="#fff"></path><path d="M241.7,212a.5.5,0,0,1-.33-.12.51.51,0,0,1-.05-.71c1.61-1.82,2.94-3.72,3-4.34-.56,0-2.58,1.06-4.43,2.45a.5.5,0,0,1-.6-.8c1.29-1,4.4-3.16,5.6-2.51a.8.8,0,0,1,.41.59c.22,1.19-2.21,4.09-3.26,5.27A.46.46,0,0,1,241.7,212Z" fill="#231f20"></path><path d="M169.33,199.25c-.11.27-6.71,14.17-4,14s10-12.8,10-12.8" fill="#fff"></path><path d="M165.31,213.79a1,1,0,0,1-.87-.45c-.85-1.27.61-6,4.35-14.1l.08-.19a.5.5,0,0,1,.93.39l-.1.22c-4.1,8.85-4.89,12.7-4.42,13.13,1.83-.09,6.87-7.74,9.62-12.55a.49.49,0,0,1,.68-.18.51.51,0,0,1,.19.68c-1.24,2.16-7.54,12.91-10.4,13Z" fill="#231f20"></path><path d="M194.55,214.24c-.22.2-6.86,21.94-1.45,16.61s8.92-16,8.92-16" fill="#fff"></path><path d="M191.74,232.19a.92.92,0,0,1-.29,0,1.3,1.3,0,0,1-.85-1.06c-.81-3.33,3.19-16.82,3.61-17.22a.49.49,0,0,1,.7,0,.5.5,0,0,1,.07.6c-.86,1.88-4.58,15.95-3.26,16.69,0,0,.29,0,1-.7,5.25-5.18,8.76-15.67,8.8-15.78a.49.49,0,0,1,.63-.32.52.52,0,0,1,.32.64c-.15.43-3.63,10.82-9.05,16.18A2.73,2.73,0,0,1,191.74,232.19Z" fill="#231f20"></path><path d="M244.46,225.81c-4.26-3.36-19.38-11.61-26.67-12.48s-12.51,5.23-6.35,15.06,18.75,11.15,24.82,11.14S248.72,229.17,244.46,225.81Z" fill="#fff"></path><path d="M236.19,240c-5.47,0-18.74-1.12-25.17-11.38-4.13-6.57-2.81-10.61-1.66-12.42,1.62-2.57,4.81-3.84,8.49-3.4,7.45.89,22.74,9.29,26.92,12.59h0c1.62,1.28,2,3.57,1.07,6.29-1.38,4-5.44,8.32-9.58,8.32Zm-19.76-26.28a7.11,7.11,0,0,0-6.23,3c-1.74,2.76-1.14,6.9,1.66,11.36C218,238,230.88,239,236.19,239h.07c3.58,0,7.36-4,8.63-7.65.8-2.29.53-4.18-.74-5.18C240,223,225,214.69,217.73,213.83A9.55,9.55,0,0,0,216.43,213.75Z" fill="#231f20"></path><path d="M238,233.9s-4.35-16-22.07-13.42" fill="#fff"></path><path d="M238,234.4a.49.49,0,0,1-.48-.36C237.3,233.4,233,218.54,216,221a.51.51,0,0,1-.57-.43.5.5,0,0,1,.43-.56c17.92-2.57,22.58,13.62,22.62,13.78a.51.51,0,0,1-.35.62Z" fill="#231f20"></path><path d="M231.66,211.56h-5.87a.5.5,0,0,1-.5-.5.51.51,0,0,1,.5-.5h5.87a.5.5,0,0,1,.5.5A.5.5,0,0,1,231.66,211.56Z" fill="#231f20"></path><line x1="227.8" y1="208.92" x2="229.73" y2="213.25" fill="#fff"></line><path d="M229.73,213.75a.49.49,0,0,1-.45-.3l-1.94-4.33a.5.5,0,1,1,.92-.4l1.93,4.32a.5.5,0,0,1-.25.66A.54.54,0,0,1,229.73,213.75Z" fill="#231f20"></path><path d="M240.89,214.72H235a.51.51,0,0,1-.5-.5.5.5,0,0,1,.5-.5h5.87a.5.5,0,0,1,.5.5A.5.5,0,0,1,240.89,214.72Z" fill="#231f20"></path><line x1="237.03" y1="212.08" x2="238.96" y2="216.4" fill="#fff"></line><path d="M239,216.9a.49.49,0,0,1-.45-.29l-1.94-4.33a.5.5,0,0,1,.92-.41l1.93,4.33a.5.5,0,0,1-.25.66A.52.52,0,0,1,239,216.9Z" fill="#231f20"></path><path d="M223,185.79c-2.24,1.27-5.31,1.58-6.49,3.87-.6,1.17-.51,2.58-.9,3.84a5.32,5.32,0,0,1-4.22,3.61,1.78,1.78,0,0,1-1.77-.53c-.31-.49-.17-1.14-.37-1.68-.47-1.25-2.35-1.17-3.44-.4s-1.87,2-3.1,2.51a4.19,4.19,0,0,1-4.06-.77,9.63,9.63,0,0,1-2.54-3.46,5.5,5.5,0,0,1-.76-3.53,5,5,0,0,1,1.08-2,13.88,13.88,0,0,1,9.07-5c3.73-.44,6.41-.38,9.15-3.29.25-.27.5-.56.73-.85A85.62,85.62,0,0,1,223,185.79Z" fill="#d1d3d4"></path><path d="M190.46,180.05c-2.06.83-4.47,1.36-5.71,3.2s-.91,4.19-2.06,6c-1.26,1.94-3.82,2.54-6.13,2.64a32.6,32.6,0,0,1-9.27-.9c.05-.21.1-.41.16-.62,1.61-5.63,8.55-15.28,14.53-21.57a17.79,17.79,0,0,1,10.46,4,4.76,4.76,0,0,1,1.72,2.4C194.67,177.38,192.51,179.23,190.46,180.05Z" fill="#d1d3d4"></path><path d="M210.35,174a11.1,11.1,0,0,1-8.3,1.93,8.15,8.15,0,0,1-4.48-2.24c-2.33-2.45-1.3-5.34-.07-8.17A93.24,93.24,0,0,1,210.35,174Z" fill="#d1d3d4"></path><path d="M143.45,204.48a.47.47,0,0,1-.17,0,.49.49,0,0,1-.3-.64l31.88-88.25a.5.5,0,0,1,.64-.3.49.49,0,0,1,.3.64l-31.88,88.25A.5.5,0,0,1,143.45,204.48Z" fill="#fff"></path><path d="M238.43,173.6a.5.5,0,0,1-.48-.37l-11.51-40.85a.51.51,0,0,1,.35-.62.49.49,0,0,1,.61.35L238.91,173a.51.51,0,0,1-.35.62Z" fill="#fff"></path><path d="M264.33,244.74a.51.51,0,0,1-.48-.35l-3.94-12.55a.51.51,0,0,1,.33-.63.5.5,0,0,1,.62.33l3.95,12.55a.5.5,0,0,1-.33.62Z" fill="#fff"></path><path d="M145.23,243.61l-.17,0a.49.49,0,0,1-.3-.63l7-20.15a.5.5,0,0,1,.63-.31.51.51,0,0,1,.31.64l-7,20.15A.5.5,0,0,1,145.23,243.61Z" fill="#fff"></path><path d="M205.47,137.45A.49.49,0,0,1,205,137l-2.21-18a.49.49,0,0,1,.43-.55.5.5,0,0,1,.56.43l2.21,18a.5.5,0,0,1-.43.56Z" fill="#fff"></path><path d="M175.85,248.68h-.11a.5.5,0,0,1-.38-.6l2.41-11.29a.49.49,0,0,1,.59-.38.51.51,0,0,1,.39.59l-2.41,11.29A.5.5,0,0,1,175.85,248.68Z" fill="#fff"></path><path d="M220,119.44a.51.51,0,0,1-.49-.38l-3.83-15.81a.5.5,0,1,1,1-.23l3.84,15.81a.51.51,0,0,1-.37.6Z" fill="#fff"></path><path d="M187.75,118l-.11,0a.49.49,0,0,1-.38-.59l2.81-13a.5.5,0,0,1,.6-.38.49.49,0,0,1,.38.59l-2.82,13A.49.49,0,0,1,187.75,118Z" fill="#fff"></path><path d="M229.33,42.77a.42.42,0,0,1-.24-.07c-14.64-8.07-32.18-7.45-32.36-7.44a.53.53,0,0,1-.52-.48.5.5,0,0,1,.48-.52c.18,0,18-.64,32.88,7.57a.51.51,0,0,1,.2.68A.53.53,0,0,1,229.33,42.77Z" fill="#fff"></path></g></svg>