<svg xmlns="http://www.w3.org/2000/svg" viewBox="0 0 400 300" width="406" height="306" class="illustration styles_illustrationTablet__1DWOa"><g id="_016" data-name="016"><ellipse cx="192.57" cy="252.06" rx="155.39" ry="11.48" fill="#d1d3d4"></ellipse><path d="M295.3,97.35A17.41,17.41,0,0,1,313,114.49V234.1a15,15,0,0,1-15.2,14.74H129.29a15,15,0,0,1-15.2-14.74V94a15,15,0,0,1,15.2-14.74h65c10.31,0,18.66,8.11,18.66,18.1H295.3Z" fill="#231f20"></path><path d="M297.77,249.34H129.29a15.49,15.49,0,0,1-15.7-15.24V94a15.49,15.49,0,0,1,15.7-15.24h65c10.39,0,18.88,8.08,19.15,18.11H295.3c10,0,18.16,7.91,18.16,17.63V234.1A15.49,15.49,0,0,1,297.77,249.34ZM129.29,79.75A14.49,14.49,0,0,0,114.59,94V234.1a14.49,14.49,0,0,0,14.7,14.24H297.77a14.49,14.49,0,0,0,14.7-14.24V114.49c0-9.17-7.7-16.64-17.17-16.64H213a.5.5,0,0,1-.5-.5c0-9.7-8.15-17.6-18.16-17.6Z" fill="#231f20"></path><polygon points="141.5 229.22 141.5 42.97 265.67 42.97 294.69 72 294.69 225.99 141.5 229.22" fill="#18181B"></polygon><path d="M279.32,81.63H154.22a.49.49,0,0,1-.49-.5.5.5,0,0,1,.49-.5h125.1a.5.5,0,0,1,.49.5A.49.49,0,0,1,279.32,81.63Z" fill="#fff"></path><path d="M279.32,101.61H154.22a.5.5,0,0,1,0-1h125.1a.5.5,0,0,1,0,1Z" fill="#fff"></path><path d="M279.32,121.59H154.22a.5.5,0,0,1-.49-.5.49.49,0,0,1,.49-.5h125.1a.49.49,0,0,1,.49.5A.5.5,0,0,1,279.32,121.59Z" fill="#fff"></path><path d="M279.32,141.56H154.22a.5.5,0,0,1,0-1h125.1a.5.5,0,0,1,0,1Z" fill="#fff"></path><path d="M171.07,57.62H154.58a.5.5,0,0,1-.5-.5.51.51,0,0,1,.5-.5h16.49a.5.5,0,0,1,.49.5A.49.49,0,0,1,171.07,57.62Z" fill="#fff"></path><path d="M97.72,132.42c-2.09.8-5.54,1.55-6.43-1.36a4.26,4.26,0,0,1-.13-1.59,13.93,13.93,0,0,1,.42-2.32,38.57,38.57,0,0,1,2.21-6.24c.22-.51.65-1.12,1.17-.94s.52.74.51,1.2c0,1.32-.22,2.65-.19,4,2.78-.71,4.53-3.65,7.17-4.28.75-.18,1.65-.23,1.73.73.1,1.19-2.05,2.13-2.77,2.75a8.51,8.51,0,0,1,2.73-1.59,1.71,1.71,0,0,1,.89-.14.69.69,0,0,1,.6.59,1,1,0,0,1-.32.66,9,9,0,0,1-1.36,1.26,3.42,3.42,0,0,1,1.92-1.13,1,1,0,0,1,1.06.28c.3.51-.29,1.07-.8,1.36a3.05,3.05,0,0,1,1.44-.71,1.06,1.06,0,0,1,1.21.81,1.48,1.48,0,0,1-.57,1.08C105.47,129.51,101.24,131.06,97.72,132.42Z" fill="#fff"></path><path d="M94.37,133.64a4.26,4.26,0,0,1-1.88-.39,3.21,3.21,0,0,1-1.68-2,4.76,4.76,0,0,1-.15-1.78,15.85,15.85,0,0,1,.43-2.4,40.11,40.11,0,0,1,2.24-6.32c.42-1,1.11-1.44,1.79-1.21.4.13.88.54.85,1.69,0,.56,0,1.13-.09,1.7s-.08,1-.1,1.56a11.66,11.66,0,0,0,2.84-1.88,9.61,9.61,0,0,1,3.71-2.19,2.23,2.23,0,0,1,1.83.15,1.35,1.35,0,0,1,.52,1,1.49,1.49,0,0,1-.06.56,1.68,1.68,0,0,1,.5,0,1.19,1.19,0,0,1,1,1.06,2.13,2.13,0,0,1,0,.27,1.33,1.33,0,0,1,1.25.56,1.25,1.25,0,0,1,.14.41h0a1.76,1.76,0,0,1,1.27.37,1.31,1.31,0,0,1,.48.9,1.9,1.9,0,0,1-.71,1.48c-2.69,2.65-6.67,4.18-10.19,5.53l-.47.18A10.32,10.32,0,0,1,94.37,133.64Zm.41-13.2c-.12,0-.36.27-.53.66a39.19,39.19,0,0,0-2.19,6.16,15.87,15.87,0,0,0-.41,2.25,3.77,3.77,0,0,0,.12,1.4,2.17,2.17,0,0,0,1.16,1.44c1.37.67,3.48,0,4.61-.4h0l.47-.18c3.43-1.32,7.31-2.81,9.85-5.31.19-.19.44-.46.42-.68a.3.3,0,0,0-.13-.21.72.72,0,0,0-.53-.16,1.79,1.79,0,0,0-.75.32,4.52,4.52,0,0,1-.49.34.51.51,0,0,1-.67-.16.51.51,0,0,1,.12-.68l.43-.31a.73.73,0,0,0,.25-.33c-.05-.12-.25-.17-.54-.11a2.75,2.75,0,0,0-.88.33c-.27.25-.55.49-.84.71a.5.5,0,0,1-.69-.72,4.06,4.06,0,0,1,.92-.79c.16-.15.31-.31.46-.48s.19-.28.19-.3-.08-.11-.19-.13a1.44,1.44,0,0,0-.64.12,8.13,8.13,0,0,0-1,.44c-.27.2-.55.38-.82.55a8,8,0,0,0-.73.5h0a.52.52,0,0,1-.71-.06.5.5,0,0,1,0-.7,8.82,8.82,0,0,1,1.67-1.14c.52-.38,1-.81.93-1.19,0-.22-.09-.28-.11-.29s-.31-.16-1,0a8.73,8.73,0,0,0-3.31,2,10.32,10.32,0,0,1-3.84,2.28.51.51,0,0,1-.43-.09.51.51,0,0,1-.2-.38,22.53,22.53,0,0,1,.1-2.34c0-.55.08-1.1.09-1.65s-.08-.69-.17-.71S94.79,120.44,94.78,120.44Z" fill="#231f20"></path><path d="M95.41,125.26a4.36,4.36,0,0,1,.08,5.46h.28" fill="#fff"></path><path d="M95.49,131.22a.49.49,0,0,1-.38-.81,3.88,3.88,0,0,0-.07-4.82.51.51,0,0,1,0-.71.49.49,0,0,1,.7.05,4.87,4.87,0,0,1,.45,5.61.32.32,0,0,1,0,.14.51.51,0,0,1-.47.53h-.31Z" fill="#231f20"></path><rect x="95.3" y="96.29" width="135.02" height="97.79" transform="translate(14.6 -14.88) rotate(5.48)" fill="#fff"></rect><path d="M225.35,200.83h0L90.89,187.94a.52.52,0,0,1-.46-.57L99.76,90a.52.52,0,0,1,.56-.47l134.41,12.89a.5.5,0,0,1,.46.56l-9.33,97.35a.49.49,0,0,1-.19.35A.53.53,0,0,1,225.35,200.83ZM91.5,187l133.38,12.79,9.24-96.33L100.74,90.64Z" fill="#231f20"></path><path d="M214.83,191.55h-.05L103,180.83a.51.51,0,0,1-.46-.56l7.76-81a.49.49,0,0,1,.19-.35.5.5,0,0,1,.37-.12l111.8,10.72a.51.51,0,0,1,.46.56l-7.76,81a.48.48,0,0,1-.19.35A.49.49,0,0,1,214.83,191.55ZM103.6,179.85l110.76,10.62L222,110.53,111.26,99.91Z" fill="#d1d3d4"></path><path d="M49.54,246.34l-.85,6.22s17.32,1.8,16.66.3a67.69,67.69,0,0,0-4.18-6.25" fill="#fff"></path><path d="M61.67,254c-3.74,0-9.23-.49-13-.89a.46.46,0,0,1-.34-.19.45.45,0,0,1-.1-.37l.85-6.23a.5.5,0,0,1,.56-.43.5.5,0,0,1,.43.56l-.78,5.72c6.75.68,14,1.09,15.5.67-.89-1.67-4-5.83-4-5.88a.5.5,0,1,1,.8-.59,64.53,64.53,0,0,1,4.23,6.34.64.64,0,0,1-.07.68C65.41,253.78,63.84,254,61.67,254Z" fill="#231f20"></path><path d="M92.26,133.23s11.23,7.48,15.59,5.24c2.58-1.33,4.64-3.23,7-4.86a66.11,66.11,0,0,0,6.44-4.81,3.6,3.6,0,0,0,.62-.67,4.17,4.17,0,0,0,.36-.84,22,22,0,0,1,1.42-3.31,2.13,2.13,0,0,1,.94-1c2.31-.91.86,3.88.39,4.73,1.78-1.67,3.62-3.35,5.56-4.86a.92.92,0,0,1,.72-.27.61.61,0,0,1,.36.72,1.7,1.7,0,0,1-.44.75l-3.1,3.65a26.87,26.87,0,0,1,2.89-3c.37-.34,1.42-1.34,2-.94.93.7-2.39,4.46-3,5.08a17,17,0,0,1,3.07-3.22,1.76,1.76,0,0,1,1.15-.51c.23.23,0,.62-.19.87l-2.16,2.49c1.09-1.2,2.3-2.47,3.89-2.77.08.26-.11.52-.29.73-3.18,3.71-6.37,7.37-9.72,10.92-4.46,4.72-9.3,10.17-15.65,12-7.53,2.2-14.27-2.26-20.46-6.09" fill="#fff"></path><path d="M106.05,150.37c-5.8,0-11.13-3.31-15.94-6.29l-.73-.45a.5.5,0,0,1,.53-.85l.73.45c6,3.75,12.3,7.63,19.32,5.58,5.85-1.72,10.53-6.69,14.65-11.07l.78-.83c3.3-3.49,6.48-7.15,9.21-10.33a11,11,0,0,0-2.36,2.13.5.5,0,0,1-.71,0,.5.5,0,0,1,0-.7l1.73-2a16,16,0,0,0-1.29,1.18c-.57.74-1.17,1.42-1.56,1.85a.5.5,0,0,1-.69,0,.51.51,0,0,1-.09-.68,18.17,18.17,0,0,1,1.55-1.84,6.1,6.1,0,0,0,1.48-2.6,4.86,4.86,0,0,0-1.23.91,26.85,26.85,0,0,0-2.13,2.14l-.77.91a.49.49,0,0,1-.7.06.5.5,0,0,1-.07-.7c.26-.31.52-.63.79-.93l2.32-2.72a1.4,1.4,0,0,0,.33-.53.22.22,0,0,0,0-.15s-.06,0-.26.19c-2,1.57-3.92,3.32-5.53,4.83a.5.5,0,0,1-.78-.6c.42-.76,1.15-3.52.68-4.06-.08-.09-.37,0-.45,0a1.59,1.59,0,0,0-.67.8,22.62,22.62,0,0,0-1.4,3.24,3.84,3.84,0,0,1-.41,1,3.59,3.59,0,0,1-.71.77,59.78,59.78,0,0,1-5.93,4.47l-.55.38c-.79.55-1.56,1.14-2.31,1.71a32.12,32.12,0,0,1-4.74,3.18c-4.57,2.35-15.63-4.95-16.09-5.27a.49.49,0,0,1-.14-.69.5.5,0,0,1,.69-.14c3.06,2,11.72,6.94,15.09,5.21a30.74,30.74,0,0,0,4.59-3.09c.75-.58,1.53-1.17,2.34-1.73l.55-.38a58.92,58.92,0,0,0,5.83-4.4,2.8,2.8,0,0,0,.54-.56,3.31,3.31,0,0,0,.29-.68,23.45,23.45,0,0,1,1.47-3.43,2.48,2.48,0,0,1,1.2-1.27,1.27,1.27,0,0,1,1.56.23c.57.65.42,2.05.12,3.24,1.28-1.17,2.68-2.4,4.15-3.54a1.3,1.3,0,0,1,1.14-.35,1.08,1.08,0,0,1,.76,1.12,1.09,1.09,0,0,1,1.09.09.88.88,0,0,1,.36.66,1.69,1.69,0,0,1-.12.73,1.64,1.64,0,0,1,.76-.14.5.5,0,0,1,.32.15.81.81,0,0,1,.24.69,4.65,4.65,0,0,1,.85-.25.51.51,0,0,1,.57.36,1.31,1.31,0,0,1-.39,1.19c-2.84,3.32-6.22,7.22-9.74,10.94l-.77.82c-4.21,4.48-9,9.56-15.1,11.35A15,15,0,0,1,106.05,150.37Z" fill="#231f20"></path><polygon points="88.29 162.03 99.31 247.44 87.48 247.13 72.77 186.76 62.29 247.28 49.01 246.34 56.47 158 88.29 162.03" fill="#231f20"></polygon><path d="M69,129.79c.33-7.13-1.11-21.59-1.11-21.59s9.08.52,12.14-3.85c3.74,2.93,4.51,11.19,3.83,13.66-1.36,4.87-7.69,3.8-7.69,3.8l.81,8.92Z" fill="#fff"></path><path d="M77,131.23h-.06l-8-.95a.5.5,0,0,1-.44-.52c.33-7-1.09-21.37-1.11-21.51a.53.53,0,0,1,.14-.4.52.52,0,0,1,.39-.15c.09,0,8.84.45,11.7-3.63a.48.48,0,0,1,.34-.21.52.52,0,0,1,.38.1c3.92,3.07,4.72,11.57,4,14.18-1.19,4.29-5.89,4.36-7.62,4.23l.76,8.31a.53.53,0,0,1-.15.41A.5.5,0,0,1,77,131.23Zm-7.46-1.88,6.91.81-.76-8.3a.51.51,0,0,1,.16-.41.47.47,0,0,1,.42-.13c.24,0,5.91.93,7.12-3.44.58-2.09,0-9.7-3.27-12.8-3,3.51-9.64,3.67-11.66,3.64C68.71,111.4,69.75,123,69.53,129.35Z" fill="#231f20"></path><path d="M76.18,121.81a7.84,7.84,0,0,1-3.91-1.62s1.72,4.32,4.39,5Z" fill="#231f20"></path><path d="M76.66,125.61h-.11c-2.86-.69-4.63-5.06-4.71-5.24a.45.45,0,0,1,.18-.55.44.44,0,0,1,.57.06,7.44,7.44,0,0,0,3.65,1.49.45.45,0,0,1,.39.39l.48,3.34a.46.46,0,0,1-.14.4A.47.47,0,0,1,76.66,125.61Zm-3.23-4.11a7.66,7.66,0,0,0,2.67,3l-.32-2.25A10.5,10.5,0,0,1,73.43,121.5Z" fill="#231f20"></path><path d="M83,126.12l20.74,11.37-5,14.51S72.68,138.2,72.5,134.47,83,126.12,83,126.12Z" fill="#18181B"></path><path d="M89.62,169.92s.85-18.73-1-30c-.79-4.8-.48-8.17-2.07-10.77-5.34-8.72-26.14-6.12-29.16-.07S52,170.1,52,170.1Z" fill="#18181B"></path><path d="M69.38,113.27a3.1,3.1,0,0,0-2.21-2.37,1.83,1.83,0,0,0-1.5.16A2,2,0,0,0,65,112.9a4.33,4.33,0,0,0,1.37,2.83,4.28,4.28,0,0,0,2.93,1.11" fill="#fff"></path><path d="M69.23,117.34a4.74,4.74,0,0,1-4.74-4.4,2.47,2.47,0,0,1,.9-2.29,2.29,2.29,0,0,1,1.91-.24,3.63,3.63,0,0,1,2.57,2.76.5.5,0,0,1-.39.59.51.51,0,0,1-.59-.4,2.64,2.64,0,0,0-1.85-2,1.29,1.29,0,0,0-1.08.1,1.62,1.62,0,0,0-.47,1.39,3.79,3.79,0,0,0,1.21,2.49,3.84,3.84,0,0,0,2.58,1h0a.51.51,0,0,1,.5.5.5.5,0,0,1-.5.5Z" fill="#231f20"></path><ellipse cx="80.33" cy="109" rx="0.44" ry="0.81" transform="translate(-28.82 28.88) rotate(-17.33)" fill="#231f20"></ellipse><path d="M87.48,247.13s-.33,5.16.34,6S105.1,255,104.27,253s-6-6.23-6-6.23" fill="#fff"></path><path d="M98.2,254.66c-4.66,0-10.25-.57-10.77-1.23-.73-.91-.53-5.07-.45-6.33a.52.52,0,0,1,.54-.47.5.5,0,0,1,.46.54c-.15,2.39-.1,5.23.23,5.64a41.43,41.43,0,0,0,7.86.79c4.89.17,7.21-.19,7.69-.51-.75-1.58-4.39-4.8-5.76-5.93a.5.5,0,0,1-.07-.71.5.5,0,0,1,.7-.07c.22.18,5.23,4.34,6.1,6.43a.89.89,0,0,1-.46,1.14C103.41,254.46,101,254.66,98.2,254.66Z" fill="#231f20"></path><path d="M82.31,109.22s3.65,4.16,2.75,5.06-3,.45-3,.45" fill="#fff"></path><path d="M83.22,115.34a7,7,0,0,1-1.27-.12.5.5,0,0,1-.38-.6.49.49,0,0,1,.59-.38c.48.1,2,.26,2.55-.31.17-.43-1.15-2.52-2.77-4.38a.48.48,0,0,1,0-.7.5.5,0,0,1,.71,0c1.48,1.69,3.8,4.67,2.73,5.74A3.11,3.11,0,0,1,83.22,115.34Z" fill="#231f20"></path><path d="M98.75,152.5a.46.46,0,0,1-.23-.06c-.15-.07-14.49-7.73-19.71-10.57a.49.49,0,0,1-.2-.68.49.49,0,0,1,.67-.2c5.23,2.84,19.56,10.49,19.71,10.57a.5.5,0,0,1,.2.68A.49.49,0,0,1,98.75,152.5Z" fill="#231f20"></path><path d="M72.77,187.26a.46.46,0,0,1-.33-.13c-.09-.08-2.19-2.06-4.36-9.36a.52.52,0,0,1,.34-.63.51.51,0,0,1,.62.34c2.07,7,4,8.9,4.07,8.91a.5.5,0,0,1,0,.71A.49.49,0,0,1,72.77,187.26Z" fill="#fff"></path><path d="M190.6,159.77a.5.5,0,0,1-.39-.18c-.4-.45-39.44-45.15-44.35-48.65-1.89-1.36-13.6,3.25-38.09,21.49a.52.52,0,0,1-.62-.83c.09-.06,8.54-6.35,17.5-12.11,18.39-11.84,21-10,21.81-9.39,5,3.57,42.91,47,44.52,48.81a.52.52,0,0,1,0,.73A.55.55,0,0,1,190.6,159.77Z" fill="#d1d3d4"></path><path d="M218.91,152.24a.53.53,0,0,1-.45-.25c-8.15-13.42-17.57-27.45-19.23-27.7-1.68.24-15.44,11.27-23.71,18.16a.52.52,0,0,1-.66-.8c2.21-1.84,21.68-18,24.26-18.39.85-.14,4.54,2.39,20.23,28.2a.52.52,0,0,1-.18.71A.48.48,0,0,1,218.91,152.24Z" fill="#d1d3d4"></path><path d="M178.23,123.57a4.28,4.28,0,1,1,4.28-4.27A4.28,4.28,0,0,1,178.23,123.57Zm0-7.52a3.25,3.25,0,1,0,3.25,3.25A3.25,3.25,0,0,0,178.23,116.05Z" fill="#d1d3d4"></path><path d="M76.8,115.89a3.21,3.21,0,0,0,2.69,2,3.93,3.93,0,0,0,3.13-1.26" fill="#fff"></path><path d="M79.78,118.35l-.34,0a3.7,3.7,0,0,1-3.11-2.26.5.5,0,0,1,.94-.36,2.68,2.68,0,0,0,2.26,1.63,3.47,3.47,0,0,0,2.73-1.1.5.5,0,0,1,.71,0,.49.49,0,0,1,0,.7A4.48,4.48,0,0,1,79.78,118.35Z" fill="#231f20"></path><path d="M65.4,121.27a12.82,12.82,0,0,1-5.79-1.38A4.79,4.79,0,0,1,57.46,118a2.76,2.76,0,0,1-.31-1.66,3.87,3.87,0,0,1-2.35-.4,7.8,7.8,0,0,1-2.62-2.4,1.54,1.54,0,0,1-.38-1,1.47,1.47,0,0,1,.47-.92l.67-.73a21.61,21.61,0,0,0,3.21-4.13,20.94,20.94,0,0,0,1.34-3.37c.29-.87.59-1.77,1-2.63,2.7-6.1,7.69-7.09,12.23-7.26,2.86-.1,6.67.8,8.4,3.65a1.46,1.46,0,0,1,.37-.2,2.2,2.2,0,0,1,1.67.06,4.15,4.15,0,0,1,1.71,1.84,17.83,17.83,0,0,1,2.18,10,.49.49,0,0,1-.54.46.5.5,0,0,1-.46-.53A16.83,16.83,0,0,0,82,99.38,3.18,3.18,0,0,0,80.7,98a1.17,1.17,0,0,0-.88,0,.65.65,0,0,0-.38.34.5.5,0,0,1-.45.3h0a.52.52,0,0,1-.46-.3c-1.3-2.91-5-3.84-7.8-3.72-6.06.22-9.35,2.15-11.34,6.66a26.78,26.78,0,0,0-.94,2.54A21.76,21.76,0,0,1,57,107.28a21.85,21.85,0,0,1-3.36,4.32l-.66.73a1,1,0,0,0-.22.3A.92.92,0,0,0,53,113a6.86,6.86,0,0,0,2.26,2.12,2.66,2.66,0,0,0,2.67-.06.5.5,0,0,1,.61.79,1.44,1.44,0,0,0-.19,1.74A4,4,0,0,0,60.07,119a11.75,11.75,0,0,0,6,1.25.49.49,0,0,1,.53.47.5.5,0,0,1-.47.53Z" fill="#231f20"></path><path d="M181.37,130.94H353.18c7.47,0,11.44,5.19,8.85,11.59l-38.64,95.61c-2.58,6.4-10.74,11.59-18.21,11.59H133.36c-7.47,0-11.43-5.19-8.84-11.59l38.63-95.61C165.74,136.13,173.89,130.94,181.37,130.94Z" fill="#fff"></path><path d="M305.18,250.25H133.36c-3.93,0-7.16-1.44-8.86-4C123,244,122.79,241,124,238l38.63-95.61c2.66-6.57,11-11.91,18.7-11.91H353.18c3.94,0,7.17,1.44,8.86,3.95,1.55,2.29,1.72,5.26.47,8.35l-38.64,95.6C321.22,244.9,312.83,250.25,305.18,250.25ZM181.37,131.46c-7.27,0-15.23,5-17.74,11.27L125,238.33c-1.11,2.76-1,5.39.37,7.39,1.5,2.22,4.41,3.5,8,3.5H305.18c7.27,0,15.22-5.06,17.74-11.27l38.63-95.61c1.12-2.76,1-5.38-.36-7.38-1.5-2.23-4.42-3.5-8-3.5Z" fill="#231f20"></path><path d="M294.69,72.48h-29a.51.51,0,0,1-.52-.51V43a.52.52,0,1,1,1,0V71.45h28.51a.52.52,0,1,1,0,1Z" fill="#231f20"></path><path d="M192.66,62a4.34,4.34,0,0,1-3.78-2.44c-1.17-2.25-4.42-14-5-18.68a4.08,4.08,0,0,1,3.24-4.69c2.27-.63,5.38,0,6.21,1.87.68,1.54,1.88,4.44,1.88,4.44l-.95.4S193,40,192.36,38.47c-.53-1.22-3-1.85-5-1.29a3.09,3.09,0,0,0-2.5,3.57c.64,5,3.88,16.33,4.92,18.33a3.19,3.19,0,0,0,3.44,1.81,2.22,2.22,0,0,0,1.5-2.49c-.13-3.78-5.23-17.6-5.28-17.74a.51.51,0,0,1,.31-.66.52.52,0,0,1,.66.3c.21.58,5.2,14.12,5.34,18.06a3.22,3.22,0,0,1-2.27,3.53A3.34,3.34,0,0,1,192.66,62Z" fill="#231f20"></path><path d="M333.31,162.54H274.46a3.61,3.61,0,0,1-3.17-1.51,4.26,4.26,0,0,1-.12-4l2-4.83a8.78,8.78,0,0,1,7.34-5.16h58.86a3.66,3.66,0,0,1,3.17,1.51,4.26,4.26,0,0,1,.12,4l-2,4.84A8.77,8.77,0,0,1,333.31,162.54ZM280.53,148a7.68,7.68,0,0,0-6.39,4.52l-2,4.84a3.27,3.27,0,0,0,0,3.07,2.67,2.67,0,0,0,2.32,1h58.85A7.66,7.66,0,0,0,339.7,157l2-4.83a3.28,3.28,0,0,0,0-3.08,2.64,2.64,0,0,0-2.31-1.05Z" fill="#d1d3d4"></path></g></svg>